<svg viewBox="0 0 400 300" xmlns="http://www.w3.org/2000/svg">
  <rect width="400" height="300" fill="#FEF3C7" rx="8"/>
  <rect x="0" y="0" width="400" height="300" fill="#CA8A04" fill-opacity="0.07" rx="8"/>
  <!-- Booth/table icon -->
  <g transform="translate(160, 90)" stroke="#B91C1C" stroke-opacity="0.3" stroke-width="2" fill="none">
    <rect x="20" y="10" width="40" height="4" rx="1"/>
    <line x1="25" y1="14" x2="25" y2="45"/>
    <line x1="55" y1="14" x2="55" y2="45"/>
    <path d="M0 5v35c0 3 3 5 6 5h8V10H6c-3 0-6-2-6-5z"/>
    <path d="M80 5v35c0 3-3 5-6 5h-8V10h8c3 0 6-2 6-5z"/>
  </g>
  <text x="200" y="230" text-anchor="middle" font-family="sans-serif" font-size="14" fill="#B91C1C" fill-opacity="0.5">Photo coming soon</text>
  <circle cx="70" cy="55" r="3" fill="#CA8A04" fill-opacity="0.1"/>
</svg>
